<?xml version="1.0" encoding="UTF-8"?>
<svg xmlns="http://www.w3.org/2000/svg" version="1.1" viewBox="0 0 28 18">
  <defs>
    <style>
      .cls-1 {
        fill: #010101;
      }

      .cls-2 {
        fill: #231f20;
      }

      .cls-3 {
        fill: #fff7f2;
      }
    </style>
  </defs>
  <!-- Generator: Adobe Illustrator 28.7.1, SVG Export Plug-In . SVG Version: 1.2.0 Build 142)  -->
  <g>
    <g id="Layer_1">
      <g>
        <rect class="cls-3" x=".2" y=".2" width="27.5" height="17.5" rx="1.7" ry="1.7"/>
        <path class="cls-2" d="M26,.5c.8,0,1.5.7,1.5,1.5v14c0,.8-.7,1.5-1.5,1.5H2c-.8,0-1.5-.7-1.5-1.5V2c0-.8.7-1.5,1.5-1.5h24M26,0H2C.9,0,0,.9,0,2v14c0,1.1.9,2,2,2h24c1.1,0,2-.9,2-2V2c0-1.1-.9-2-2-2h0Z"/>
      </g>
      <g>
        <path class="cls-1" d="M9.4,8.2c0,1.1,1,1.4,1,1.5,0,0-.2.5-.5,1-.3.4-.6.9-1.1.9-.5,0-.7-.3-1.2-.3s-.7.3-1.2.3c-.5,0-.9-.5-1.2-.9-.6-.9-1.1-2.5-.5-3.6.3-.5.9-.9,1.5-.9.5,0,.9.3,1.2.3s.8-.4,1.4-.3c.2,0,.9,0,1.4.7,0,0-.8.5-.8,1.4"/>
        <path class="cls-1" d="M8.5,5.5c.3-.3.4-.7.4-1.1-.4,0-.8.2-1.1.5-.2.3-.4.7-.4,1.1.4,0,.8-.2,1.1-.5"/>
        <g>
          <path class="cls-1" d="M15.7,6c0-.2-.2-.4-.4-.6-.2-.2-.4-.3-.7-.4-.3,0-.6-.1-1-.1s-.5,0-.8,0c-.2,0-.4,0-.6,0h0v6.5h.5v-2.8c.2,0,.5,0,.8,0s.7,0,1-.1c.3,0,.5-.2.8-.4.2-.2.4-.4.5-.6.1-.3.2-.5.2-.9s0-.5-.1-.7ZM14.9,8c-.3.3-.8.4-1.4.4s-.3,0-.4,0c-.1,0-.3,0-.4,0v-2.9c0,0,.2,0,.4,0,.2,0,.3,0,.5,0s.5,0,.7,0c.2,0,.4.2.6.3.2.1.3.3.4.5,0,.2.1.4.1.7,0,.5-.2.9-.5,1.2Z"/>
          <path d="M13.6,4.9c.4,0,.7,0,1,.1.3,0,.5.2.7.4.2.2.3.3.4.6,0,.2.1.5.1.7s0,.6-.2.9c-.1.3-.3.5-.5.6-.2.2-.5.3-.8.4-.3,0-.6.1-1,.1s-.6,0-.8,0v2.8h-.5v-6.5h0c.2,0,.4,0,.6,0s.5,0,.8,0M13.5,8.4c.6,0,1.1-.1,1.4-.4.3-.3.5-.7.5-1.2s0-.5-.1-.7c0-.2-.2-.3-.4-.5-.2-.1-.3-.2-.6-.3-.2,0-.5,0-.7,0s-.4,0-.5,0c-.2,0-.3,0-.4,0v2.9c.1,0,.2,0,.4,0,.1,0,.3,0,.4,0M13.6,4.7c-.3,0-.6,0-.8,0-.2,0-.6,0-.8.1l.2.2-.2-.2v6.8h.9v-2.8c.2,0,.4,0,.6,0,.4,0,.7,0,1-.1h0s0,0,0,0c.3,0,.6-.2.8-.4.2-.2.4-.4.6-.7.1-.3.2-.6.2-1s0-.6-.1-.8h0s0,0,0,0c-.1-.2-.2-.4-.4-.6h0s0,0,0,0c-.2-.2-.5-.3-.8-.4h0s0,0,0,0c-.3,0-.7-.1-1.1-.1h0ZM12.9,5.5c0,0,.1,0,.2,0,.1,0,.3,0,.5,0s.5,0,.7,0c.2,0,.4.1.5.2.1,0,.2.2.3.4,0,.2.1.4.1.6,0,.5-.1.8-.4,1h0s0,0,0,0c-.3.2-.7.4-1.3.4s-.3,0-.4,0c0,0-.1,0-.2,0v-2.6h0Z"/>
        </g>
        <g>
          <path class="cls-1" d="M19.6,10.9c0-.2,0-.4,0-.6v-1.8c0-.2,0-.4,0-.6,0-.2-.1-.4-.2-.6-.1-.2-.3-.3-.5-.4-.2-.1-.5-.2-.8-.2s-.5,0-.7,0c-.2,0-.4.2-.7.3l.2.3c.2-.1.4-.2.6-.3.2,0,.4,0,.6,0s.5,0,.6.1c.2,0,.3.2.4.4,0,.1.1.3.2.5,0,.2,0,.3,0,.4h0c-1,.1-1.7.3-2.1.6-.5.3-.7.7-.7,1.3s0,.3,0,.5c0,.2.1.3.3.4.1.1.3.2.4.3.2,0,.4.1.6.1s.4,0,.5,0c.2,0,.3-.1.4-.2.1,0,.2-.2.3-.2,0,0,.2-.2.2-.3h0v.7h.5c0-.2,0-.4,0-.5ZM19.1,10.3c0,.1,0,.2-.2.3,0,.1-.2.2-.3.3-.1,0-.2.2-.4.2s-.3,0-.5,0-.5,0-.6-.2c-.2-.2-.3-.4-.3-.7s0-.5.2-.7c.2-.2.3-.3.6-.4.2,0,.5-.1.8-.2.3,0,.5,0,.8,0v1c0,0,0,.2,0,.3Z"/>
          <path d="M18,6.7c.3,0,.6,0,.8.2.2.1.4.3.5.4.1.2.2.4.2.6,0,.2,0,.4,0,.6v1.8c0,.2,0,.4,0,.6,0,.2,0,.4,0,.5h-.4v-.7h0c0,0-.1.2-.2.3,0,0-.2.2-.3.2-.1,0-.3.1-.4.2-.2,0-.3,0-.5,0s-.4,0-.6-.1c-.2,0-.3-.2-.4-.3-.1-.1-.2-.3-.3-.4,0-.2,0-.3,0-.5,0-.6.2-1,.7-1.3.5-.3,1.1-.4,2-.4,0,0,0,0,.1,0h0c0-.3,0-.4,0-.5,0-.2,0-.3-.2-.5,0-.1-.2-.3-.4-.4-.2,0-.4-.1-.6-.1s-.4,0-.6,0c-.2,0-.4.1-.6.3l-.2-.3c.2-.1.4-.2.7-.3.2,0,.5,0,.7,0M17.7,11.2c.2,0,.4,0,.5,0,.2,0,.3-.1.4-.2.1,0,.2-.2.3-.3,0-.1.1-.2.2-.3,0-.1,0-.2,0-.3v-1c0,0-.1,0-.2,0-.2,0-.4,0-.6,0-.3,0-.5,0-.8.2-.2,0-.4.2-.6.4-.2.2-.2.4-.2.7s0,.6.3.7c.2.2.4.2.6.2M18,6.5c-.3,0-.5,0-.8,0h0s0,0,0,0c-.3,0-.5.2-.7.3h-.1c0,0,0,.2,0,.2l.2.3v.2c0,0,.3-.1.3-.1.2-.1.3-.2.5-.2h0s0,0,0,0c.2,0,.4,0,.6,0s.4,0,.5.1c.1,0,.2.2.3.3,0,.1.1.2.1.4,0,.1,0,.2,0,.3-.9,0-1.6.2-2,.5-.5.3-.8.8-.8,1.4s0,.4,0,.5c0,.2.2.3.3.5.1.1.3.2.5.3.2,0,.4.1.7.1s.4,0,.6,0c.2,0,.3-.1.5-.2.1,0,.2-.1.3-.2v.2s0,.2,0,.2h.9v-.2c0-.2,0-.3-.1-.5,0-.2,0-.4,0-.6v-1.8c0-.2,0-.5,0-.7,0-.2-.1-.5-.3-.7-.1-.2-.3-.4-.6-.5-.2-.1-.5-.2-.9-.2h0ZM18.3,9.2c.2,0,.4,0,.6,0v.8s0,0,0,.2c0,0,0,.2-.1.3,0,0-.1.2-.2.3,0,0-.2.1-.3.2-.1,0-.3,0-.5,0s-.4,0-.5-.2c-.1-.1-.2-.3-.2-.6s0-.4.2-.5c.1-.1.3-.3.5-.3.2,0,.4-.1.7-.2h0Z"/>
        </g>
        <g>
          <path class="cls-1" d="M20.5,6.8l1.2,3c0,.2.1.3.2.5s.1.3.2.5h0c0-.1,0-.3.2-.5s.1-.4.2-.5l1.1-3h.5l-1.4,3.4c-.1.4-.3.7-.4,1s-.2.6-.4.8-.3.4-.4.6-.3.3-.4.5c-.2.2-.4.3-.5.4-.2,0-.3.1-.3.1l-.2-.4c.1,0,.3-.1.4-.2s.3-.2.4-.3c.1-.1.3-.3.4-.5s.3-.4.4-.7c0-.1,0-.2,0-.2s0-.1,0-.2l-1.7-4.3h.5,0Z"/>
          <path d="M20.5,6.8l1.2,3c0,.2.1.3.2.5,0,.2.1.3.2.5h0c0-.1,0-.3.2-.5s.1-.4.2-.5l1.1-3h.5l-1.4,3.4c-.1.4-.3.7-.4,1-.1.3-.2.6-.4.8-.1.2-.3.4-.4.6-.1.2-.3.3-.4.5-.2.2-.4.3-.5.4-.2,0-.3.1-.3.1l-.2-.4c.1,0,.3-.1.4-.2.1,0,.3-.2.4-.3.1-.1.3-.3.4-.5.1-.2.3-.4.4-.7,0-.1,0-.2,0-.2s0-.1,0-.2l-1.7-4.3h.5,0M20.6,6.6h-.3s-.3,0-.3,0h-.3v.3c.1,0,1.8,4.3,1.8,4.3h0s0,0,0,0c0,0,0,0,0,.1,0,0,0,0,0,.1-.1.3-.2.5-.4.7-.1.2-.3.3-.4.4-.1.1-.3.2-.4.3-.1,0-.3.1-.4.2h-.2c0,0,0,.3,0,.3l.2.4v.2c0,0,.2,0,.2,0,0,0,.2,0,.3-.1.2,0,.4-.2.6-.4.2-.1.3-.3.5-.5.1-.2.3-.4.4-.6.1-.3.3-.5.4-.8,0-.2.2-.6.4-1l1.4-3.4v-.3c.1,0-.2,0-.2,0h-.7c0,.1-1.1,3.1-1.1,3.1,0,.2-.1.3-.2.5,0-.2-.1-.3-.2-.5h0s0,0,0,0l-1.2-3h0Z"/>
        </g>
      </g>
    </g>
  </g>
</svg>