<?xml version="1.0" encoding="UTF-8"?>
<svg id="Layer_1" xmlns="http://www.w3.org/2000/svg" version="1.1" viewBox="0 0 56 36">
  <!-- Generator: Adobe Illustrator 29.0.0, SVG Export Plug-In . SVG Version: 2.1.0 Build 186)  -->
  <defs>
    <style>
      .st0 {
        fill: #010101;
      }

      .st1 {
        fill: #231f20;
      }

      .st2 {
        fill: #fff7f2;
      }
    </style>
  </defs>
  <g>
    <rect class="st2" x=".12" y=".5" width="55.77" height="35" rx="1.5" ry="1.5"/>
    <path class="st1" d="M54.38,1c.55,0,1,.45,1,1v32c0,.55-.45,1-1,1H1.62c-.55,0-1-.45-1-1V2c0-.55.45-1,1-1h52.76M54.38,0H1.62C.51,0-.38.9-.38,2v32c0,1.1.9,2,2,2h52.76c1.1,0,2-.9,2-2V2c0-1.1-.9-2-2-2h0Z"/>
  </g>
  <g>
    <path class="st0" d="M18.67,16.41c.02,2.18,2,2.9,2.02,2.91-.02.05-.32,1.04-1.04,2.05-.63.88-1.28,1.75-2.3,1.77-1.01.02-1.33-.57-2.48-.57s-1.51.55-2.47.59c-.99.03-1.74-.95-2.38-1.82-1.29-1.78-2.28-5.04-.95-7.24.66-1.09,1.84-1.78,3.12-1.81.97-.02,1.89.63,2.48.63s1.71-.77,2.88-.66c.49.02,1.87.19,2.75,1.43-.07.04-1.64.92-1.63,2.74"/>
    <path class="st0" d="M16.77,11.06c.53-.61.88-1.45.78-2.3-.76.03-1.68.48-2.21,1.09-.49.54-.91,1.4-.8,2.22.85.06,1.71-.41,2.23-1.02"/>
    <g>
      <path class="st0" d="M31.51,11.96c-.18-.42-.44-.79-.76-1.1-.38-.36-.86-.62-1.44-.81-.58-.18-1.28-.28-2.08-.28-.56,0-1.08.02-1.55.08-.47.06-.91.11-1.29.17h0v12.93h.95v-5.59c.43.09.96.14,1.59.14.7,0,1.34-.09,1.94-.25.59-.17,1.1-.43,1.53-.77.43-.34.77-.76,1.01-1.27.25-.51.37-1.1.37-1.77,0-.56-.09-1.05-.27-1.48ZM29.81,15.9c-.67.55-1.6.82-2.81.82-.32,0-.63-.02-.91-.04-.28-.02-.54-.07-.77-.14v-5.84c.18-.03.43-.07.74-.1.31-.03.68-.05,1.11-.05.54,0,1.03.06,1.47.18.44.12.82.3,1.15.54.32.24.57.55.74.92.17.37.26.81.26,1.32,0,1.05-.33,1.85-1,2.39Z"/>
      <path d="M27.23,9.77c.81,0,1.5.1,2.08.28.58.19,1.06.45,1.44.81.32.31.58.68.76,1.1.18.43.27.92.27,1.48,0,.67-.12,1.26-.37,1.77-.25.51-.58.93-1.01,1.27-.43.34-.94.6-1.53.77-.59.17-1.24.25-1.94.25-.63,0-1.16-.05-1.59-.14v5.59h-.95v-12.93h0c.39-.06.82-.12,1.29-.17s.99-.08,1.55-.08M27,16.72c1.21,0,2.14-.27,2.81-.82.67-.54,1-1.34,1-2.39,0-.51-.09-.94-.26-1.32-.17-.37-.42-.68-.74-.92-.32-.24-.71-.42-1.15-.54-.44-.12-.93-.18-1.47-.18-.43,0-.8.02-1.11.05-.31.03-.56.07-.74.1v5.84c.23.06.49.11.77.14.28.02.58.04.91.04M27.23,9.37c-.61,0-1.13.03-1.6.08-.41.05-1.21.18-1.64.25l.36.32-.36-.32v13.64h1.75v-5.52c.36.04.75.07,1.19.07.72,0,1.41-.09,2.04-.27h0s0,0,0,0c.65-.19,1.21-.47,1.67-.84.48-.38.85-.85,1.12-1.41.27-.56.41-1.21.41-1.94,0-.61-.1-1.15-.3-1.63h0s0,0,0,0c-.2-.47-.49-.89-.85-1.23h0s0,0,0,0c-.41-.39-.93-.69-1.59-.9h0s0,0,0,0c-.63-.2-1.37-.3-2.2-.3h0ZM25.73,11.04c.11-.02.24-.03.38-.05.3-.03.66-.05,1.07-.05.5,0,.94.06,1.37.17.39.11.73.27,1.01.48.26.2.47.45.62.77.15.33.23.71.23,1.15,0,.94-.28,1.62-.85,2.08h0s0,0,0,0c-.6.49-1.43.73-2.55.73-.28,0-.57-.01-.87-.04-.14-.01-.27-.03-.4-.05v-5.19h0Z"/>
    </g>
    <g>
      <path class="st0" d="M39.32,21.86c0-.37-.02-.75-.02-1.13v-3.66c0-.43-.04-.86-.13-1.29-.09-.44-.26-.83-.49-1.17-.24-.35-.58-.63-1-.86-.42-.22-.96-.33-1.64-.33-.5,0-.98.06-1.43.18-.45.13-.9.33-1.33.61l.3.68c.34-.23.72-.4,1.12-.52.4-.12.82-.18,1.24-.18.55,0,.99.1,1.31.29.32.19.56.43.72.71.16.29.26.59.31.9.05.32.07.6.07.84v.25c-1.94-.02-3.38.26-4.34.86-.96.6-1.44,1.44-1.44,2.54,0,.31.06.62.17.93.11.31.28.59.51.83.22.24.52.43.87.58.35.15.77.22,1.24.22.38,0,.72-.05,1.04-.14.32-.09.6-.21.85-.36.24-.14.45-.3.65-.49.19-.17.34-.36.46-.54h.04l.14,1.32h.89c-.07-.35-.11-.71-.12-1.09ZM38.27,20.54c-.08.24-.2.46-.35.68-.16.22-.35.42-.58.6-.23.17-.5.32-.81.42s-.66.16-1.05.16c-.49,0-.92-.16-1.31-.47-.39-.31-.58-.79-.58-1.45,0-.56.16-1.01.46-1.34.31-.34.7-.6,1.17-.77.47-.17.98-.29,1.54-.34.55-.05,1.09-.07,1.6-.06v2.01c0,.12-.02.3-.09.56Z"/>
      <path d="M36.05,13.42c.68,0,1.22.11,1.64.33.42.22.76.51,1,.86.24.35.4.74.49,1.17.09.44.13.87.13,1.29v3.66c0,.37,0,.75.02,1.13.02.37.06.74.12,1.09h-.89l-.14-1.32h-.04c-.12.18-.27.36-.46.54-.2.19-.41.36-.65.49-.25.15-.53.27-.85.36-.31.09-.66.14-1.04.14-.47,0-.88-.07-1.24-.22-.35-.15-.65-.34-.87-.58-.23-.24-.4-.52-.51-.83-.12-.31-.17-.62-.17-.93,0-1.1.48-1.94,1.44-2.54.93-.57,2.29-.86,4.12-.86.07,0,.15,0,.22,0v-.25c0-.25-.02-.52-.07-.84-.05-.32-.15-.62-.31-.9-.16-.29-.4-.52-.72-.71-.32-.19-.76-.29-1.31-.29-.42,0-.83.06-1.24.18-.4.11-.78.29-1.12.52l-.3-.68c.43-.29.87-.48,1.33-.61.45-.12.93-.18,1.43-.18M35.49,22.39c.39,0,.74-.06,1.05-.16.3-.1.58-.25.81-.42.23-.17.42-.37.58-.6.16-.22.27-.44.35-.68.07-.26.1-.44.1-.56v-2.01c-.11,0-.22,0-.33,0-.41,0-.84.02-1.28.06-.56.06-1.07.17-1.54.34-.47.17-.86.43-1.17.77-.3.33-.46.79-.46,1.34,0,.66.2,1.14.58,1.45.39.31.82.47,1.31.47M36.05,13.02c-.53,0-1.04.07-1.54.2h0s0,0,0,0c-.51.14-1,.37-1.44.66l-.28.18.13.3.3.68.19.43.4-.26c.31-.21.65-.36,1.01-.47h0s0,0,0,0c.37-.11.75-.17,1.12-.17.47,0,.84.08,1.1.24.26.15.45.34.58.57.13.23.22.48.27.77.04.24.06.45.07.64-1.82.02-3.18.32-4.15.92-1.08.67-1.63,1.63-1.63,2.87,0,.35.07.71.2,1.06.12.36.33.68.6.96.25.27.59.49,1.01.67.4.17.86.25,1.39.25.4,0,.79-.05,1.14-.15.35-.1.66-.23.95-.4.23-.13.44-.29.64-.47l.05.46.04.35h1.73l-.09-.47c-.06-.33-.1-.67-.12-1.03,0-.35-.02-.74-.02-1.11v-3.66c0-.47-.05-.92-.14-1.37-.1-.48-.29-.92-.55-1.32-.27-.4-.65-.73-1.14-.98-.48-.26-1.08-.38-1.83-.38h0ZM36.8,18.41c.43-.04.81-.06,1.16-.06v1.62c0,.05,0,.18-.08.45-.07.2-.17.38-.3.57-.14.2-.3.36-.49.51-.2.15-.43.27-.69.36-.27.09-.58.14-.92.14-.39,0-.74-.12-1.06-.38-.29-.24-.44-.61-.44-1.15,0-.46.12-.82.36-1.08.27-.29.6-.51,1.01-.67.43-.16.9-.26,1.44-.32h0Z"/>
    </g>
    <g>
      <path class="st0" d="M41.15,13.63l2.45,6.06c.13.33.26.68.39,1.04s.23.68.32.98h.04c.09-.29.2-.6.32-.96s.26-.72.4-1.1l2.3-6.02h1l-2.8,6.83c-.28.72-.55,1.38-.8,1.97s-.5,1.12-.76,1.6-.51.89-.77,1.25-.55.68-.87.95c-.38.33-.72.56-1.04.71-.31.15-.53.25-.63.28l-.32-.75c.24-.1.51-.24.81-.4s.58-.39.86-.66c.24-.23.51-.54.8-.92s.54-.84.77-1.39c.08-.21.12-.34.12-.4,0-.09-.04-.23-.12-.4l-3.48-8.64h1v-.02Z"/>
      <path d="M41.15,13.63l2.45,6.06c.13.33.26.68.39,1.04.12.36.23.68.32.98h.04c.09-.29.2-.6.32-.96s.26-.72.4-1.1l2.3-6.02h1l-2.8,6.83c-.28.72-.55,1.38-.8,1.97-.25.59-.5,1.12-.76,1.6-.26.48-.51.89-.77,1.25-.26.37-.55.68-.87.95-.38.33-.72.56-1.04.71-.31.15-.53.25-.63.28l-.32-.75c.24-.1.51-.24.81-.4.3-.17.58-.39.86-.66.24-.23.51-.54.8-.92.29-.38.54-.84.77-1.39.08-.21.12-.34.12-.4,0-.09-.04-.23-.12-.4l-3.48-8.64h1v-.02M41.43,13.27h-.68s-.6,0-.6,0h-.59l.22.54,3.48,8.64h0s0,.02,0,.02c.06.12.08.2.08.23,0,.03-.03.1-.09.27-.22.52-.46.95-.72,1.3-.26.35-.53.65-.76.87-.26.25-.52.45-.78.6-.27.15-.53.28-.77.39l-.36.16.15.36.32.75.14.33.34-.1c.13-.04.33-.13.69-.3.34-.16.71-.41,1.13-.76.34-.29.65-.62.94-1.02.28-.38.54-.81.8-1.3.27-.51.53-1.06.77-1.63.2-.47.49-1.18.8-1.98l2.8-6.83.22-.54h-1.87l-.1.25-2.3,6.01c-.12.3-.24.62-.37.99-.11-.3-.22-.62-.36-.96h0s0,0,0,0l-2.45-6.06-.09-.22Z"/>
    </g>
  </g>
</svg>