<?xml version="1.0" encoding="UTF-8"?>
<svg id="Layer_1" xmlns="http://www.w3.org/2000/svg" version="1.1" viewBox="0 0 56 36">
  <!-- Generator: Adobe Illustrator 29.0.0, SVG Export Plug-In . SVG Version: 2.1.0 Build 186)  -->
  <defs>
    <style>
      .st0 {
        fill: #fff7f2;
      }

      .st1 {
        fill: #88c057;
      }

      .st2 {
        fill: #88c057;
      }

      .st3 {
        fill: #fff7f2;
      }
    </style>
  </defs>
  <g>
    <rect class="st2" x="1.5" y="1.5" width="53" height="33" rx="2.5" ry="2.5"/>
    <path class="st3" d="M52,3c.55,0,1,.45,1,1v28c0,.55-.45,1-1,1H4c-.55,0-1-.45-1-1V4c0-.55.45-1,1-1h48M52,0H4C1.79,0,0,1.79,0,4v28c0,2.21,1.79,4,4,4h48c2.21,0,4-1.79,4-4V4c0-2.21-1.79-4-4-4h0Z"/>
  </g>
  <circle class="st0" cx="4" cy="4" r="4"/>
  <circle class="st0" cx="28" cy="18" r="10"/>
  <circle class="st0" cx="52" cy="4" r="4"/>
  <circle class="st0" cx="52" cy="32" r="4"/>
  <circle class="st0" cx="4" cy="32" r="4"/>
  <path class="st1" d="M30.55,15.56c.02-.47-.12-.84-.41-1.1-.29-.26-.74-.39-1.33-.39-.4,0-.75.05-1.05.16-.29.11-.53.26-.71.46-.18.2-.29.42-.33.68-.04.2-.03.38.04.54s.18.29.33.4c.15.11.34.21.55.29.21.08.44.15.68.21l1,.25c.48.11.92.26,1.31.45s.72.42.99.7.45.61.56.98c.11.38.13.8.05,1.29-.12.71-.4,1.33-.85,1.85s-1.03.92-1.74,1.21c-.72.29-1.55.43-2.5.43s-1.73-.14-2.38-.43c-.65-.29-1.12-.72-1.42-1.29-.29-.57-.38-1.27-.26-2.1h2.38c-.04.39.02.71.17.97s.39.46.71.59.68.2,1.11.2.79-.06,1.12-.18.59-.29.8-.51c.21-.21.33-.46.38-.74.05-.26,0-.48-.12-.66s-.32-.33-.6-.46-.62-.24-1.03-.34l-1.21-.32c-.94-.24-1.65-.62-2.13-1.12-.48-.51-.65-1.19-.51-2.05.12-.71.41-1.33.88-1.85s1.06-.94,1.77-1.23c.71-.29,1.49-.44,2.35-.44s1.59.15,2.19.45,1.03.71,1.3,1.24.36,1.15.25,1.85h-2.36.02ZM26.48,25.27l2.41-14.54h.93l-2.41,14.54h-.93Z"/>
</svg>