<?xml version="1.0" encoding="UTF-8"?>
<svg xmlns="http://www.w3.org/2000/svg" version="1.1" viewBox="0 0 28 18">
  <defs>
    <style>
      .cls-1 {
        fill: #88c057;
      }

      .cls-2 {
        fill: #fff7f2;
      }
    </style>
  </defs>
  <!-- Generator: Adobe Illustrator 28.7.1, SVG Export Plug-In . SVG Version: 1.2.0 Build 142)  -->
  <g>
    <g id="Layer_1">
      <g>
        <rect class="cls-1" x=".8" y=".8" width="26.5" height="16.5" rx="1.2" ry="1.2"/>
        <path class="cls-2" d="M26,1.5c.3,0,.5.2.5.5v14c0,.3-.2.5-.5.5H2c-.3,0-.5-.2-.5-.5V2c0-.3.2-.5.5-.5h24M26,0H2C.9,0,0,.9,0,2v14c0,1.1.9,2,2,2h24c1.1,0,2-.9,2-2V2c0-1.1-.9-2-2-2h0Z"/>
      </g>
      <circle class="cls-2" cx="2" cy="2" r="2"/>
      <circle class="cls-2" cx="14" cy="9" r="5"/>
      <circle class="cls-2" cx="26" cy="2" r="2"/>
      <circle class="cls-2" cx="26" cy="16" r="2"/>
      <circle class="cls-2" cx="2" cy="16" r="2"/>
      <path class="cls-1" d="M15.3,7.8c0-.2,0-.4-.2-.5-.1-.1-.4-.2-.7-.2s-.4,0-.5,0c-.1,0-.3.1-.4.2,0,0-.1.2-.2.3,0,.1,0,.2,0,.3s0,.1.2.2c0,0,.2.1.3.1.1,0,.2,0,.3.1h.5c.2.2.5.3.7.4.2,0,.4.2.5.3s.2.3.3.5c0,.2,0,.4,0,.6,0,.4-.2.7-.4.9s-.5.5-.9.6c-.4.1-.8.2-1.2.2s-.9,0-1.2-.2c-.3-.1-.6-.4-.7-.6-.1-.3-.2-.6-.1-1h1.2c0,.2,0,.4,0,.5s.2.2.4.3.3,0,.6,0,.4,0,.6,0c.2,0,.3-.1.4-.3.1-.1.2-.2.2-.4,0-.1,0-.2,0-.3s-.2-.2-.3-.2-.3-.1-.5-.2l-.6-.2c-.5-.1-.8-.3-1.1-.6-.2-.3-.3-.6-.3-1,0-.4.2-.7.4-.9s.5-.5.9-.6c.4-.1.7-.2,1.2-.2s.8,0,1.1.2.5.4.6.6c.1.3.2.6.1.9h-1.2ZM13.2,12.6l1.2-7.3h.5l-1.2,7.3h-.5Z"/>
    </g>
  </g>
</svg>