<?xml version="1.0" encoding="UTF-8"?>
<svg id="Layer_1" xmlns="http://www.w3.org/2000/svg" version="1.1" viewBox="0 0 2500 2500">
  <!-- Generator: Adobe Illustrator 29.0.0, SVG Export Plug-In . SVG Version: 2.1.0 Build 186)  -->
  <defs>
    <style>
      .st0 {
        fill: #fff7f2;
      }
    </style>
  </defs>
  <path class="st0" d="M833.45,1250c0-230.11,186.49-416.7,416.6-416.7s416.7,186.59,416.7,416.7-186.59,416.7-416.7,416.7-416.6-186.59-416.6-416.7M608.19,1250c0,354.5,287.36,641.86,641.86,641.86s641.86-287.36,641.86-641.86-287.36-641.86-641.86-641.86-641.86,287.36-641.86,641.86M1767.32,582.69c-.03,82.84,67.1,150.03,149.94,150.06,82.84.03,150.03-67.1,150.06-149.94.03-82.84-67.1-150.03-149.94-150.06h-.06c-82.8.04-149.93,67.14-150,149.94M745.05,2267.47c-121.87-5.55-188.11-25.85-232.13-43-58.36-22.72-100-49.78-143.78-93.5s-70.88-85.32-93.5-143.68c-17.16-44-37.46-110.26-43-232.13-6.06-131.76-7.27-171.34-7.27-505.15s1.31-373.28,7.27-505.15c5.55-121.87,26-188,43-232.13,22.72-58.36,49.78-100,93.5-143.78s85.32-70.88,143.78-93.5c44-17.16,110.26-37.46,232.13-43,131.76-6.06,171.34-7.27,505-7.27s373.28,1.31,505.15,7.27c121.87,5.55,188,26,232.13,43,58.36,22.62,100,49.78,143.78,93.5s70.78,85.42,93.5,143.78c17.16,44,37.46,110.26,43,232.13,6.06,131.87,7.27,171.34,7.27,505.15s-1.21,373.28-7.27,505.15c-5.55,121.87-25.95,188.11-43,232.13-22.72,58.36-49.78,100-93.5,143.68s-85.42,70.78-143.78,93.5c-44,17.16-110.26,37.46-232.13,43-131.76,6.06-171.34,7.27-505.15,7.27s-373.28-1.21-505-7.27M734.7,7.57c-133.07,6.06-224,27.16-303.41,58.06-82.24,31.91-151.86,74.72-221.43,144.18s-112.27,139.19-144.18,221.43c-30.9,79.46-52,170.34-58.06,303.41C1.46,867.93.05,910.54.05,1250s1.41,382.07,7.57,515.35c6.06,133.08,27.16,223.95,58.06,303.41,31.91,82.19,74.62,152,144.18,221.43s139.19,112.18,221.43,144.18c79.56,30.9,170.34,52,303.41,58.06,133.35,6.06,175.89,7.57,515.35,7.57s382.07-1.41,515.35-7.57c133.08-6.06,223.95-27.16,303.41-58.06,82.19-32,151.86-74.72,221.43-144.18s112.18-139.24,144.18-221.43c30.9-79.46,52.1-170.34,58.06-303.41,6.06-133.38,7.47-175.89,7.47-515.35s-1.41-382.07-7.47-515.35c-6.06-133.08-27.16-224-58.06-303.41-32-82.19-74.72-151.86-144.18-221.43s-139.24-112.27-221.33-144.18c-79.56-30.9-170.44-52.1-303.41-58.06C1632.22,1.51,1589.61,0,1250.15,0s-382.1,1.41-515.45,7.57"/>
  <path class="st0" d="M833.45,1250c0-230.11,186.49-416.7,416.6-416.7s416.7,186.59,416.7,416.7-186.59,416.7-416.7,416.7-416.6-186.59-416.6-416.7M608.19,1250c0,354.5,287.36,641.86,641.86,641.86s641.86-287.36,641.86-641.86-287.36-641.86-641.86-641.86-641.86,287.36-641.86,641.86M1767.32,582.69c-.03,82.84,67.1,150.03,149.94,150.06,82.84.03,150.03-67.1,150.06-149.94.03-82.84-67.1-150.03-149.94-150.06h-.06c-82.8.04-149.93,67.14-150,149.94M745.05,2267.47c-121.87-5.55-188.11-25.85-232.13-43-58.36-22.72-100-49.78-143.78-93.5s-70.88-85.32-93.5-143.68c-17.16-44-37.46-110.26-43-232.13-6.06-131.76-7.27-171.34-7.27-505.15s1.31-373.28,7.27-505.15c5.55-121.87,26-188,43-232.13,22.72-58.36,49.78-100,93.5-143.78s85.32-70.88,143.78-93.5c44-17.16,110.26-37.46,232.13-43,131.76-6.06,171.34-7.27,505-7.27s373.28,1.31,505.15,7.27c121.87,5.55,188,26,232.13,43,58.36,22.62,100,49.78,143.78,93.5s70.78,85.42,93.5,143.78c17.16,44,37.46,110.26,43,232.13,6.06,131.87,7.27,171.34,7.27,505.15s-1.21,373.28-7.27,505.15c-5.55,121.87-25.95,188.11-43,232.13-22.72,58.36-49.78,100-93.5,143.68s-85.42,70.78-143.78,93.5c-44,17.16-110.26,37.46-232.13,43-131.76,6.06-171.34,7.27-505.15,7.27s-373.28-1.21-505-7.27M734.7,7.57c-133.07,6.06-224,27.16-303.41,58.06-82.24,31.91-151.86,74.72-221.43,144.18s-112.27,139.19-144.18,221.43c-30.9,79.46-52,170.34-58.06,303.41C1.46,867.93.05,910.54.05,1250s1.41,382.07,7.57,515.35c6.06,133.08,27.16,223.95,58.06,303.41,31.91,82.19,74.62,152,144.18,221.43s139.19,112.18,221.43,144.18c79.56,30.9,170.34,52,303.41,58.06,133.35,6.06,175.89,7.57,515.35,7.57s382.07-1.41,515.35-7.57c133.08-6.06,223.95-27.16,303.41-58.06,82.19-32,151.86-74.72,221.43-144.18s112.18-139.24,144.18-221.43c30.9-79.46,52.1-170.34,58.06-303.41,6.06-133.38,7.47-175.89,7.47-515.35s-1.41-382.07-7.47-515.35c-6.06-133.08-27.16-224-58.06-303.41-32-82.19-74.72-151.86-144.18-221.43s-139.24-112.27-221.33-144.18c-79.56-30.9-170.44-52.1-303.41-58.06C1632.22,1.51,1589.61,0,1250.15,0s-382.1,1.41-515.45,7.57"/>
</svg>