<?xml version="1.0" encoding="UTF-8"?>
<svg id="Layer_1" xmlns="http://www.w3.org/2000/svg" version="1.1" viewBox="0 0 56 36">
  <!-- Generator: Adobe Illustrator 29.0.0, SVG Export Plug-In . SVG Version: 2.1.0 Build 186)  -->
  <defs>
    <style>
      .st0 {
        fill: #ea001b;
      }

      .st1 {
        fill: #ff5f01;
      }

      .st2 {
        fill: #f79f1a;
      }

      .st3 {
        fill: #fff7f2;
      }
    </style>
  </defs>
  <rect class="st3" width="56" height="36" rx="4" ry="4"/>
  <g>
    <path class="st2" d="M47.37,18c0,6.63-5.36,12-11.97,12s-11.97-5.37-11.97-12,5.35-12,11.97-12,11.98,5.37,11.98,12h0Z"/>
    <path class="st0" d="M32.58,18c0,6.63-5.36,12-11.97,12s-11.97-5.37-11.97-12,5.36-12,11.97-12,11.97,5.37,11.97,12h0Z"/>
    <path class="st1" d="M28,8.55c-2.79,2.19-4.59,5.61-4.59,9.45s1.79,7.26,4.59,9.45c2.79-2.19,4.59-5.61,4.59-9.45s-1.79-7.25-4.59-9.45h0Z"/>
  </g>
</svg>