<?xml version="1.0" encoding="UTF-8"?>
<svg id="Layer_1" xmlns="http://www.w3.org/2000/svg" version="1.1" viewBox="0 0 56 36">
  <!-- Generator: Adobe Illustrator 29.0.0, SVG Export Plug-In . SVG Version: 2.1.0 Build 186)  -->
  <defs>
    <style>
      .st0 {
        fill: #222d65;
      }

      .st1 {
        fill: #179bd7;
      }

      .st2 {
        fill: #fff7f2;
      }

      .st3 {
        fill: #253b80;
      }
    </style>
  </defs>
  <rect class="st2" width="56" height="36" rx="4" ry="4"/>
  <g>
    <path class="st1" d="M36.84,11.61c-.02.15-.05.31-.08.47-1.07,5.47-4.71,7.36-9.37,7.36h-2.37c-.57,0-1.05.41-1.14.98l-1.21,7.7-.34,2.18c-.05.33.17.64.5.69.03,0,.06,0,.09,0h4.21c.5,0,.92-.36,1-.85l.04-.21.79-5.02.05-.28c.08-.49.5-.85,1-.85h.63c4.07,0,7.26-1.65,8.2-6.44.39-2,.19-3.67-.84-4.84-.33-.36-.72-.66-1.15-.89h0Z"/>
    <path class="st0" d="M35.72,11.16c-.34-.1-.69-.18-1.04-.23-.69-.11-1.39-.16-2.09-.15h-6.33c-.5,0-.92.36-1,.85l-1.35,8.53-.04.25c.09-.56.57-.98,1.14-.98h2.37c4.66,0,8.3-1.89,9.37-7.36.03-.16.06-.32.08-.47-.28-.15-.57-.27-.88-.37-.08-.03-.16-.05-.24-.07h0Z"/>
    <path class="st3" d="M25.27,11.63c.08-.49.5-.86,1-.85h6.33c.75,0,1.45.05,2.09.15.43.07.86.17,1.28.3.31.1.61.23.88.37.32-2.02,0-3.4-1.1-4.65-1.21-1.37-3.38-1.96-6.16-1.96h-8.08c-.57,0-1.05.41-1.14.98l-3.37,21.34c-.06.38.2.73.58.79.04,0,.07,0,.11,0h4.99l1.25-7.95,1.35-8.53Z"/>
  </g>
</svg>