<?xml version="1.0" encoding="UTF-8"?>
<svg xmlns="http://www.w3.org/2000/svg" version="1.1" viewBox="0 0 28 18">
  <defs>
    <style>
      .cls-1 {
        fill: #222d65;
      }

      .cls-2 {
        fill: #179bd7;
      }

      .cls-3 {
        fill: #fff7f2;
      }

      .cls-4 {
        fill: #253b80;
      }
    </style>
  </defs>
  <!-- Generator: Adobe Illustrator 28.7.1, SVG Export Plug-In . SVG Version: 1.2.0 Build 142)  -->
  <g>
    <g id="Layer_1">
      <rect class="cls-3" width="28" height="18" rx="2" ry="2"/>
      <g>
        <path class="cls-2" d="M18.4,5.8c0,0,0,.2,0,.2-.5,2.7-2.4,3.7-4.7,3.7h-1.2c-.3,0-.5.2-.6.5l-.6,3.8-.2,1.1c0,.2,0,.3.3.3,0,0,0,0,0,0h2.1c.2,0,.5-.2.5-.4h0c0-.1.4-2.6.4-2.6h0c0-.4.3-.6.5-.6h.3c2,0,3.6-.8,4.1-3.2.2-1,0-1.8-.4-2.4-.2-.2-.4-.3-.6-.4h0Z"/>
        <path class="cls-1" d="M17.9,5.6c-.2,0-.3,0-.5-.1-.3,0-.7,0-1,0h-3.2c-.2,0-.5.2-.5.4l-.7,4.3h0c0-.2.3-.4.6-.4h1.2c2.3,0,4.2-.9,4.7-3.7,0,0,0-.2,0-.2-.1,0-.3-.1-.4-.2,0,0,0,0-.1,0h0Z"/>
        <path class="cls-4" d="M12.6,5.8c0-.2.3-.4.5-.4h3.2c.4,0,.7,0,1,0,.2,0,.4,0,.6.2.2,0,.3.1.4.2.2-1,0-1.7-.5-2.3-.6-.7-1.7-1-3.1-1h-4c-.3,0-.5.2-.6.5l-1.7,10.7c0,.2,0,.4.3.4,0,0,0,0,0,0h2.5l.6-4,.7-4.3Z"/>
      </g>
    </g>
  </g>
</svg>