<?xml version="1.0" encoding="UTF-8"?>
<svg id="Layer_1" xmlns="http://www.w3.org/2000/svg" version="1.1" viewBox="0 0 100 100">
  <!-- Generator: Adobe Illustrator 29.0.0, SVG Export Plug-In . SVG Version: 2.1.0 Build 186)  -->
  <defs>
    <style>
      .st0 {
        fill: #fff7f2;
      }
    </style>
  </defs>
  <path class="st0" d="M93.6,25v16.1c-9.4-.5-18.1-3.6-25.2-8.8v36.6c0,17.1-13.9,31-31,31s-31-13.9-31-31,13.9-31,31-31,3.1,0,4.6.3v16.3c-1.5-.5-3-.7-4.6-.7-8.3,0-15.1,6.8-15.1,15.1s6.8,15.1,15.1,15.1,15.1-6.8,15.1-15.1V0h16.2v.7c0,13.4,10.9,24.3,24.3,24.3s.4,0,.6,0h0Z"/>
</svg>