<?xml version="1.0" encoding="UTF-8"?>
<svg xmlns="http://www.w3.org/2000/svg" version="1.1" viewBox="0 0 28 18">
  <defs>
    <style>
      .cls-1 {
        fill: #1434cb;
      }

      .cls-2 {
        fill: #fff7f2;
      }
    </style>
  </defs>
  <!-- Generator: Adobe Illustrator 28.7.1, SVG Export Plug-In . SVG Version: 1.2.0 Build 142)  -->
  <g>
    <g id="Layer_1">
      <rect class="cls-2" width="28" height="18" rx="2" ry="2"/>
      <path class="cls-1" d="M17.3,5.6c-1.6,0-3,.8-3,2.2s2.5,1.8,2.5,2.6-.4.7-1.1.7c-1,0-1.8-.4-1.8-.4l-.3,1.4s.9.4,2,.4c1.7,0,3.1-.8,3.1-2.3s-2.5-1.8-2.5-2.6.3-.6,1-.6,1.5.3,1.5.3l.3-1.4s-.7-.3-1.7-.3ZM3,5.7v.2s.6.1,1.2.3c.8.3.8.4.9.9l1.4,5.2h1.9l2.9-6.6h-1.9l-1.9,4.5-.8-3.8c0-.4-.4-.7-.9-.7,0,0-3,0-3,0ZM12.1,5.7l-1.5,6.6h1.8l1.5-6.6h-1.8ZM22.1,5.7c-.4,0-.7.2-.8.6l-2.6,6h1.9l.4-1h2.3l.2,1h1.7l-1.4-6.6h-1.5ZM22.3,7.5l.6,2.5h-1.5l.9-2.5Z"/>
    </g>
  </g>
</svg>