<?xml version="1.0" encoding="UTF-8"?>
<svg id="Layer_1" xmlns="http://www.w3.org/2000/svg" version="1.1" viewBox="0 0 56 36">
  <!-- Generator: Adobe Illustrator 29.0.0, SVG Export Plug-In . SVG Version: 2.1.0 Build 186)  -->
  <defs>
    <style>
      .st0 {
        fill: #1434cb;
      }

      .st1 {
        fill: #fff7f2;
      }
    </style>
  </defs>
  <rect class="st1" width="56" height="36" rx="4" ry="4"/>
  <path class="st0" d="M34.66,11.17c-3.12,0-5.92,1.55-5.92,4.42,0,3.29,4.95,3.51,4.95,5.16,0,.7-.83,1.32-2.25,1.32-2.02,0-3.52-.87-3.52-.87l-.64,2.89s1.74.73,4.04.73c3.42,0,6.1-1.63,6.1-4.54,0-3.47-4.97-3.69-4.97-5.22,0-.54.68-1.14,2.1-1.14,1.6,0,2.9.63,2.9.63l.63-2.79s-1.42-.59-3.42-.59ZM6.08,11.38l-.08.42s1.31.23,2.5.69c1.52.53,1.63.83,1.89,1.79l2.8,10.33h3.75l5.78-13.22h-3.74l-3.71,8.99-1.51-7.62c-.14-.87-.84-1.37-1.7-1.37h-5.98ZM24.22,11.38l-2.93,13.22h3.57l2.92-13.22h-3.56ZM44.11,11.38c-.86,0-1.32.44-1.65,1.21l-5.23,12.01h3.74l.72-2h4.56l.44,2h3.3l-2.88-13.22h-3.01,0ZM44.6,14.96l1.11,4.96h-2.97l1.86-4.96Z"/>
</svg>